<mxfile host="app.diagrams.net" agent="Mozilla/5.0 (Windows NT 10.0; Win64; x64) AppleWebKit/537.36 (KHTML, like Gecko) Chrome/129.0.0.0 Safari/537.36" version="24.7.17">
  <diagram name="Страница 1" id="xFxOA301gsr8KIwCS7wJ">
    <mxGraphModel dx="1434" dy="746" grid="1" gridSize="10" guides="1" tooltips="1" connect="1" arrows="1" fold="1" page="1" pageScale="1" pageWidth="827" pageHeight="1169" math="0" shadow="0">
      <root>
        <mxCell id="0" />
        <mxCell id="1" parent="0" />
        <mxCell id="NGGrgc-CBntSDlkURmZ5-9" style="edgeStyle=orthogonalEdgeStyle;rounded=0;orthogonalLoop=1;jettySize=auto;html=1;exitX=1;exitY=0.5;exitDx=0;exitDy=0;entryX=0;entryY=0.5;entryDx=0;entryDy=0;" edge="1" parent="1" source="NGGrgc-CBntSDlkURmZ5-2" target="NGGrgc-CBntSDlkURmZ5-5">
          <mxGeometry relative="1" as="geometry" />
        </mxCell>
        <mxCell id="NGGrgc-CBntSDlkURmZ5-2" value="VK_Parser&lt;div&gt;&lt;br&gt;&lt;/div&gt;" style="shape=module;align=left;spacingLeft=20;align=center;verticalAlign=top;whiteSpace=wrap;html=1;" vertex="1" parent="1">
          <mxGeometry x="50" y="400" width="100" height="50" as="geometry" />
        </mxCell>
        <mxCell id="NGGrgc-CBntSDlkURmZ5-17" value="" style="edgeStyle=orthogonalEdgeStyle;rounded=0;orthogonalLoop=1;jettySize=auto;html=1;" edge="1" parent="1" source="NGGrgc-CBntSDlkURmZ5-5" target="NGGrgc-CBntSDlkURmZ5-16">
          <mxGeometry relative="1" as="geometry" />
        </mxCell>
        <mxCell id="NGGrgc-CBntSDlkURmZ5-5" value="Post text" style="rounded=0;whiteSpace=wrap;html=1;" vertex="1" parent="1">
          <mxGeometry x="293" y="320" width="90" height="35" as="geometry" />
        </mxCell>
        <mxCell id="NGGrgc-CBntSDlkURmZ5-8" value="" style="group" vertex="1" connectable="0" parent="1">
          <mxGeometry x="299.5" y="540" width="77" height="54" as="geometry" />
        </mxCell>
        <mxCell id="NGGrgc-CBntSDlkURmZ5-7" value="" style="image;aspect=fixed;html=1;points=[];align=center;fontSize=12;image=img/lib/azure2/general/Image.svg;" vertex="1" parent="NGGrgc-CBntSDlkURmZ5-8">
          <mxGeometry width="64" height="44" as="geometry" />
        </mxCell>
        <mxCell id="NGGrgc-CBntSDlkURmZ5-6" value="Post images" style="image;aspect=fixed;html=1;points=[];align=center;fontSize=12;image=img/lib/azure2/general/Image.svg;" vertex="1" parent="NGGrgc-CBntSDlkURmZ5-8">
          <mxGeometry x="13" y="10" width="64" height="44" as="geometry" />
        </mxCell>
        <mxCell id="NGGrgc-CBntSDlkURmZ5-10" style="edgeStyle=orthogonalEdgeStyle;rounded=0;orthogonalLoop=1;jettySize=auto;html=1;exitX=1;exitY=0.5;exitDx=0;exitDy=0;entryX=-0.031;entryY=0.455;entryDx=0;entryDy=0;entryPerimeter=0;" edge="1" parent="1" source="NGGrgc-CBntSDlkURmZ5-2" target="NGGrgc-CBntSDlkURmZ5-7">
          <mxGeometry relative="1" as="geometry">
            <Array as="points">
              <mxPoint x="220" y="425" />
              <mxPoint x="220" y="560" />
            </Array>
          </mxGeometry>
        </mxCell>
        <mxCell id="NGGrgc-CBntSDlkURmZ5-11" value="Downloads" style="edgeLabel;html=1;align=center;verticalAlign=middle;resizable=0;points=[];" vertex="1" connectable="0" parent="NGGrgc-CBntSDlkURmZ5-10">
          <mxGeometry x="-0.561" y="3" relative="1" as="geometry">
            <mxPoint as="offset" />
          </mxGeometry>
        </mxCell>
        <mxCell id="NGGrgc-CBntSDlkURmZ5-14" value="" style="edgeStyle=orthogonalEdgeStyle;rounded=0;orthogonalLoop=1;jettySize=auto;html=1;" edge="1" parent="1" source="NGGrgc-CBntSDlkURmZ5-13" target="NGGrgc-CBntSDlkURmZ5-5">
          <mxGeometry relative="1" as="geometry" />
        </mxCell>
        <mxCell id="NGGrgc-CBntSDlkURmZ5-15" value="Labels cat gender" style="edgeLabel;html=1;align=center;verticalAlign=middle;resizable=0;points=[];" vertex="1" connectable="0" parent="NGGrgc-CBntSDlkURmZ5-14">
          <mxGeometry x="-0.1111" y="4" relative="1" as="geometry">
            <mxPoint as="offset" />
          </mxGeometry>
        </mxCell>
        <mxCell id="NGGrgc-CBntSDlkURmZ5-23" style="edgeStyle=orthogonalEdgeStyle;rounded=0;orthogonalLoop=1;jettySize=auto;html=1;exitX=1;exitY=0.5;exitDx=0;exitDy=0;exitPerimeter=0;entryX=0;entryY=0;entryDx=0;entryDy=15;entryPerimeter=0;" edge="1" parent="1" source="NGGrgc-CBntSDlkURmZ5-13" target="NGGrgc-CBntSDlkURmZ5-22">
          <mxGeometry relative="1" as="geometry">
            <Array as="points">
              <mxPoint x="640" y="169" />
              <mxPoint x="640" y="415" />
            </Array>
          </mxGeometry>
        </mxCell>
        <mxCell id="NGGrgc-CBntSDlkURmZ5-13" value="Pre-trained model (Yolo)" style="sketch=0;points=[[0,0,0],[0.25,0,0],[0.5,0,0],[0.75,0,0],[1,0,0],[0,1,0],[0.25,1,0],[0.5,1,0],[0.75,1,0],[1,1,0],[0,0.25,0],[0,0.5,0],[0,0.75,0],[1,0.25,0],[1,0.5,0],[1,0.75,0]];outlineConnect=0;fontColor=#232F3E;fillColor=#01A88D;strokeColor=#ffffff;dashed=0;verticalLabelPosition=bottom;verticalAlign=top;align=center;html=1;fontSize=12;fontStyle=0;aspect=fixed;shape=mxgraph.aws4.resourceIcon;resIcon=mxgraph.aws4.machine_learning;" vertex="1" parent="1">
          <mxGeometry x="298.5" y="130" width="78" height="78" as="geometry" />
        </mxCell>
        <mxCell id="NGGrgc-CBntSDlkURmZ5-20" value="" style="edgeStyle=orthogonalEdgeStyle;rounded=0;orthogonalLoop=1;jettySize=auto;html=1;" edge="1" parent="1" source="NGGrgc-CBntSDlkURmZ5-16" target="NGGrgc-CBntSDlkURmZ5-18">
          <mxGeometry relative="1" as="geometry" />
        </mxCell>
        <mxCell id="NGGrgc-CBntSDlkURmZ5-16" value="Cat gender label" style="label;whiteSpace=wrap;html=1;image=img/clipart/Gear_128x128.png" vertex="1" parent="1">
          <mxGeometry x="450" y="307.5" width="140" height="60" as="geometry" />
        </mxCell>
        <mxCell id="NGGrgc-CBntSDlkURmZ5-18" value="Training data" style="html=1;verticalLabelPosition=bottom;align=center;labelBackgroundColor=#ffffff;verticalAlign=top;strokeWidth=2;strokeColor=#0080F0;shadow=0;dashed=0;shape=mxgraph.ios7.icons.folder;" vertex="1" parent="1">
          <mxGeometry x="450" y="522" width="140" height="100" as="geometry" />
        </mxCell>
        <mxCell id="NGGrgc-CBntSDlkURmZ5-19" value="" style="edgeStyle=orthogonalEdgeStyle;rounded=0;orthogonalLoop=1;jettySize=auto;html=1;" edge="1" parent="1" source="NGGrgc-CBntSDlkURmZ5-6" target="NGGrgc-CBntSDlkURmZ5-18">
          <mxGeometry relative="1" as="geometry" />
        </mxCell>
        <mxCell id="NGGrgc-CBntSDlkURmZ5-27" value="" style="edgeStyle=orthogonalEdgeStyle;rounded=0;orthogonalLoop=1;jettySize=auto;html=1;" edge="1" parent="1" source="NGGrgc-CBntSDlkURmZ5-22" target="NGGrgc-CBntSDlkURmZ5-26">
          <mxGeometry relative="1" as="geometry" />
        </mxCell>
        <mxCell id="NGGrgc-CBntSDlkURmZ5-28" value="Saves model file&lt;div&gt;in inference folder&lt;/div&gt;" style="edgeLabel;html=1;align=center;verticalAlign=middle;resizable=0;points=[];" vertex="1" connectable="0" parent="NGGrgc-CBntSDlkURmZ5-27">
          <mxGeometry x="-0.2" y="-3" relative="1" as="geometry">
            <mxPoint as="offset" />
          </mxGeometry>
        </mxCell>
        <mxCell id="NGGrgc-CBntSDlkURmZ5-22" value="&lt;div&gt;CatGender&lt;/div&gt;&lt;div&gt;&lt;br&gt;&lt;/div&gt;&lt;div&gt;trainer&lt;/div&gt;" style="shape=module;align=left;spacingLeft=20;align=center;verticalAlign=top;whiteSpace=wrap;html=1;" vertex="1" parent="1">
          <mxGeometry x="690" y="400" width="100" height="50" as="geometry" />
        </mxCell>
        <mxCell id="NGGrgc-CBntSDlkURmZ5-25" style="edgeStyle=orthogonalEdgeStyle;rounded=0;orthogonalLoop=1;jettySize=auto;html=1;entryX=0;entryY=0;entryDx=0;entryDy=35;entryPerimeter=0;" edge="1" parent="1" source="NGGrgc-CBntSDlkURmZ5-18" target="NGGrgc-CBntSDlkURmZ5-22">
          <mxGeometry relative="1" as="geometry">
            <mxPoint x="590" y="572" as="sourcePoint" />
            <mxPoint x="910" y="445" as="targetPoint" />
            <Array as="points">
              <mxPoint x="640" y="572" />
              <mxPoint x="640" y="435" />
            </Array>
          </mxGeometry>
        </mxCell>
        <mxCell id="NGGrgc-CBntSDlkURmZ5-26" value="Trained&lt;div&gt;CatGenderModel&lt;/div&gt;" style="sketch=0;points=[[0,0,0],[0.25,0,0],[0.5,0,0],[0.75,0,0],[1,0,0],[0,1,0],[0.25,1,0],[0.5,1,0],[0.75,1,0],[1,1,0],[0,0.25,0],[0,0.5,0],[0,0.75,0],[1,0.25,0],[1,0.5,0],[1,0.75,0]];outlineConnect=0;fillColor=#d5e8d4;strokeColor=#82b366;dashed=0;verticalLabelPosition=bottom;verticalAlign=top;align=center;html=1;fontSize=12;fontStyle=0;aspect=fixed;shape=mxgraph.aws4.resourceIcon;resIcon=mxgraph.aws4.machine_learning;" vertex="1" parent="1">
          <mxGeometry x="930" y="386" width="78" height="78" as="geometry" />
        </mxCell>
      </root>
    </mxGraphModel>
  </diagram>
</mxfile>
